<svg  >

<symbol id="magnifier" viewBox="0 0 512 512" xmlns="http://www.w3.org/2000/svg" style="display: block;">
  <path fill="currentColor" d="M172.6 102.4a77.4 77.4 0 0 0-77.4 77.4c0 6 4.8 10.7 10.7 10.7 6 0 10.7-4.8 10.7-10.7 0-30.9 25.1-56 55.9-56 6 0 10.7-4.8 10.7-10.7 0-5.9-4.8-10.7-10.7-10.7z"/>
  <path fill="currentColor" d="M361.7 301.5c19.4-30.4 30.6-66.5 30.6-105.2C392.3 88 304.3 0 196.15 0a195 195 0 0 0-105.18 30.66C66.73 46.12 46.11 66.76 30.66 91.01 11.26 121.44 0 157.57 0 196.27 0 304.48 88 392.53 196.15 392.53c38.68 0 74.78-11.26 105.2-30.68 25.23-13.44 45.85-34.08 61.3-58.34zM259.76 320.24c-19.07 9.84-40.7 15.4-63.6 15.4-76.8 0-139.3-62.53-139.3-139.38 0-22.91 5.56-44.56 15.4-63.64 13.32-25.86 34.48-47.02 60.32-60.33 19.08-9.84 40.7-15.4 63.58-15.4 76.8 0 139.3 62.52 139.3 139.38 0 22.9-5.56 44.53-15.4 63.62-13.32 25.86-34.48 47.03-60.32 60.35z"/>
  <path fill="currentColor" d="M499.5 439.15 386.28 326.13c-16.12 23.55-36.77 44.2-60.31 60.34l113.24 113.02c8.33 8.34 19.25 12.5 30.15 12.5 10.92 0 21.83-4.17 30.16-12.5 16.65-16.67 16.65-43.68 0-60.34z"/>
</symbol>

    <symbol id="close" stroke="currentColor" fill="currentColor" viewBox="0 0 15 15" xmlns="http://www.w3.org/2000/svg">
    <path d="M2.64 1.27L7.5 6.13l4.84-4.84C12.51 1.11 12.75 1 13 1c.55 0 1 .45 1 1 .005.25-.093.49-.27.66L8.84 7.5l4.89 4.89c.165.16.262.38.27.61 0 .55-.45 1-1 1-.258.01-.508-.087-.69-.27L7.5 8.87l-4.85 4.85C2.48 13.9 2.245 14 2 14c-.55 0-1-.45-1-1-.005-.25.093-.49.27-.66L6.16 7.5 1.27 2.61C1.105 2.45 1.008 2.23 1 2c0-.55.45-1 1-1 .24.003.47.1.64.27z"/>
  </symbol>



</svg>